TITLE ""
FILE "Disc4Track70.mp3" MP3
  TRACK 01 AUDIO
    TITLE "Disc4Track70_01"
    INDEX 01 00:00:00
  TRACK 02 AUDIO
    TITLE "Disc4Track70_02"
    INDEX 01 00:00:71
  TRACK 03 AUDIO
    TITLE "Disc4Track70_03"
    INDEX 01 00:03:63
  TRACK 04 AUDIO
    TITLE "Disc4Track70_04"
    INDEX 01 00:04:67
  TRACK 05 AUDIO
    TITLE "Disc4Track70_05"
    INDEX 01 00:08:61
  TRACK 06 AUDIO
    TITLE "Disc4Track70_06"
    INDEX 01 00:09:19
  TRACK 07 AUDIO
    TITLE "Disc4Track70_07"
    INDEX 01 00:10:32
  TRACK 08 AUDIO
    TITLE "Disc4Track70_08"
    INDEX 01 00:12:25
  TRACK 09 AUDIO
    TITLE "Disc4Track70_09"
    INDEX 01 00:13:36
  TRACK 10 AUDIO
    TITLE "Disc4Track70_10"
    INDEX 01 00:15:47
  TRACK 11 AUDIO
    TITLE "Disc4Track70_11"
    INDEX 01 00:16:05
  TRACK 12 AUDIO
    TITLE "Disc4Track70_12"
    INDEX 01 00:17:19
  TRACK 13 AUDIO
    TITLE "Disc4Track70_13"
    INDEX 01 00:19:15
  TRACK 14 AUDIO
    TITLE "Disc4Track70_14"
    INDEX 01 00:20:27
  TRACK 15 AUDIO
    TITLE "Disc4Track70_15"
    INDEX 01 00:22:37
  TRACK 16 AUDIO
    TITLE "Disc4Track70_16"
    INDEX 01 00:22:69
  TRACK 17 AUDIO
    TITLE "Disc4Track70_17"
    INDEX 01 00:24:01
  TRACK 18 AUDIO
    TITLE "Disc4Track70_18"
    INDEX 01 00:25:75
  TRACK 19 AUDIO
    TITLE "Disc4Track70_19"
    INDEX 01 00:27:07
  TRACK 20 AUDIO
    TITLE "Disc4Track70_20"
    INDEX 01 00:31:03
  TRACK 21 AUDIO
    TITLE "Disc4Track70_21"
    INDEX 01 00:31:40
  TRACK 22 AUDIO
    TITLE "Disc4Track70_22"
    INDEX 01 00:32:55
  TRACK 23 AUDIO
    TITLE "Disc4Track70_23"
    INDEX 01 00:34:37
  TRACK 24 AUDIO
    TITLE "Disc4Track70_24"
    INDEX 01 00:35:50
  TRACK 25 AUDIO
    TITLE "Disc4Track70_25"
    INDEX 01 00:37:41
  TRACK 26 AUDIO
    TITLE "Disc4Track70_26"
    INDEX 01 00:37:72
  TRACK 27 AUDIO
    TITLE "Disc4Track70_27"
    INDEX 01 00:39:10
  TRACK 28 AUDIO
    TITLE "Disc4Track70_28"
    INDEX 01 00:40:57
  TRACK 29 AUDIO
    TITLE "Disc4Track70_29"
    INDEX 01 00:41:68
  TRACK 30 AUDIO
    TITLE "Disc4Track70_30"
    INDEX 01 00:44:06
  TRACK 31 AUDIO
    TITLE "Disc4Track70_31"
    INDEX 01 00:44:37
  TRACK 32 AUDIO
    TITLE "Disc4Track70_32"
    INDEX 01 00:45:50
  TRACK 33 AUDIO
    TITLE "Disc4Track70_33"
    INDEX 01 00:47:49
  TRACK 34 AUDIO
    TITLE "Disc4Track70_34"
    INDEX 01 00:48:60
  TRACK 35 AUDIO
    TITLE "Disc4Track70_35"
    INDEX 01 00:52:31
  TRACK 36 AUDIO
    TITLE "Disc4Track70_36"
    INDEX 01 00:52:60
  TRACK 37 AUDIO
    TITLE "Disc4Track70_37"
    INDEX 01 00:53:75
  TRACK 38 AUDIO
    TITLE "Disc4Track70_38"
    INDEX 01 00:54:65
  TRACK 39 AUDIO
    TITLE "Disc4Track70_39"
    INDEX 01 00:56:03
  TRACK 40 AUDIO
    TITLE "Disc4Track70_40"
    INDEX 01 00:59:27
  TRACK 41 AUDIO
    TITLE "Disc4Track70_41"
    INDEX 01 00:59:52
  TRACK 42 AUDIO
    TITLE "Disc4Track70_42"
    INDEX 01 01:00:67
  TRACK 43 AUDIO
    TITLE "Disc4Track70_43"
    INDEX 01 01:03:01
  TRACK 44 AUDIO
    TITLE "Disc4Track70_44"
    INDEX 01 01:04:14
  TRACK 45 AUDIO
    TITLE "Disc4Track70_45"
    INDEX 01 01:05:45
